<?xml version="1.0" encoding="UTF-8"?>
<svg width="512" height="512" viewBox="0 0 512 512" xmlns="http://www.w3.org/2000/svg">
  <!-- Fondo transparente -->
  <rect width="512" height="512" fill="none"/>

  <!-- Grupo principal (centrado) -->
  <g transform="translate(256, 256)">
    <!-- Nodo central (tecnología) -->
    <circle cx="0" cy="0" r="40" fill="#545386"/>

    <!-- Pétalos/ondas (horticultura + comunicación) -->
    <!-- Pétalo 1 (arriba) -->
    <path d="M0 -100 C20 -140, 60 -140, 80 -100 C60 -60, 20 -60, 0 -100" fill="#C2DFEA" stroke="#545386" stroke-width="6"/>
    <!-- Pétalo 2 (derecha) -->
    <path d="M100 0 C140 -20, 140 -60, 100 -80 C60 -60, 60 -20, 100 0" fill="#D8D2C4" stroke="#545386" stroke-width="6" transform="rotate(90)"/>
    <!-- Pétalo 3 (abajo) -->
    <path d="M0 100 C-20 140, -60 140, -80 100 C-60 60, -20 60, 0 100" fill="#C2DFEA" stroke="#545386" stroke-width="6" transform="rotate(180)"/>
    <!-- Pétalo 4 (izquierda) -->
    <path d="M-100 0 C-140 20, -140 60, -100 80 C-60 60, -60 20, -100 0" fill="#D8D2C4" stroke="#545386" stroke-width="6" transform="rotate(270)"/>

    <!-- Ondas de comunicación (flujo unidireccional) -->
    <path d="M0 -120 A120 120 0 0 1 84.85 -84.85" fill="none" stroke="#545386" stroke-width="12" stroke-linecap="round" opacity="0.6"/>
    <path d="M0 -160 A160 160 0 0 1 113.14 -113.14" fill="none" stroke="#545386" stroke-width="10" stroke-linecap="round" opacity="0.4"/>
  </g>
</svg>
